<svg width="12" height="14" viewBox="0 0 12 14" fill="none" xmlns="http://www.w3.org/2000/svg">
<g clip-path="url(#clip0_93_16)">
<path d="M2.656 7.5C2.656 7.22386 2.87986 7 3.156 7H3.5C3.77614 7 4 7.22386 4 7.5V7.91346C4 8.1896 3.77614 8.41346 3.5 8.41346H3.156C2.87986 8.41346 2.656 8.1896 2.656 7.91346V7.5ZM12 2.79327V12.6202C12 12.9904 11.8693 13.3129 11.608 13.5877C11.3467 13.8626 11.0293 14 10.656 14H1.344C0.970667 14 0.653333 13.8626 0.392 13.5877C0.130667 13.3129 0 12.9904 0 12.6202V2.79327C0 2.40064 0.130667 2.06691 0.392 1.79207C0.653333 1.51723 0.970667 1.37981 1.344 1.37981H1.5C1.77614 1.37981 2 1.15595 2 0.879808V0.5C2 0.223858 2.22386 0 2.5 0H2.844C3.12014 0 3.344 0.223858 3.344 0.5V0.879807C3.344 1.15595 3.56786 1.37981 3.844 1.37981H8.156C8.43214 1.37981 8.656 1.15595 8.656 0.879808V0.5C8.656 0.223858 8.87986 0 9.156 0H9.5C9.77614 0 10 0.223858 10 0.5V0.879807C10 1.15595 10.2239 1.37981 10.5 1.37981H10.656C11.0293 1.37981 11.3467 1.51723 11.608 1.79207C11.8693 2.06691 12 2.40064 12 2.79327ZM1.344 3.70673C1.344 3.98287 1.56786 4.20673 1.844 4.20673H10.156C10.4321 4.20673 10.656 3.98287 10.656 3.70673V3.29327C10.656 3.01713 10.4321 2.79327 10.156 2.79327H1.844C1.56786 2.79327 1.344 3.01713 1.344 3.29327V3.70673ZM10.156 12.6202C10.4321 12.6202 10.656 12.3963 10.656 12.1202V6.08654C10.656 5.8104 10.4321 5.58654 10.156 5.58654H1.844C1.56786 5.58654 1.344 5.8104 1.344 6.08654V12.1202C1.344 12.3963 1.56786 12.6202 1.844 12.6202H10.156ZM8.5 8.41346C8.22386 8.41346 8 8.1896 8 7.91346V7.5C8 7.22386 8.22386 7 8.5 7H8.844C9.12014 7 9.344 7.22386 9.344 7.5V7.91346C9.344 8.1896 9.12014 8.41346 8.844 8.41346H8.5ZM5.844 8.41346C5.56786 8.41346 5.344 8.1896 5.344 7.91346V7.5C5.344 7.22386 5.56786 7 5.844 7H6.156C6.43214 7 6.656 7.22386 6.656 7.5V7.91346C6.656 8.1896 6.43214 8.41346 6.156 8.41346H5.844ZM2.656 10.2933C2.656 10.0171 2.87986 9.79327 3.156 9.79327H3.5C3.77614 9.79327 4 10.0171 4 10.2933V10.7067C4 10.9829 3.77614 11.2067 3.5 11.2067H3.156C2.87986 11.2067 2.656 10.9829 2.656 10.7067V10.2933ZM8.5 11.2067C8.22386 11.2067 8 10.9829 8 10.7067V10.2933C8 10.0171 8.22386 9.79327 8.5 9.79327H8.844C9.12014 9.79327 9.344 10.0171 9.344 10.2933V10.7067C9.344 10.9829 9.12014 11.2067 8.844 11.2067H8.5ZM5.844 11.2067C5.56786 11.2067 5.344 10.9829 5.344 10.7067V10.2933C5.344 10.0171 5.56786 9.79327 5.844 9.79327H6.156C6.43214 9.79327 6.656 10.0171 6.656 10.2933V10.7067C6.656 10.9829 6.43214 11.2067 6.156 11.2067H5.844Z" fill="#DD6777"/>
</g>
<defs>
<clipPath id="clip0_93_16">
<rect width="12" height="14" fill="white"/>
</clipPath>
</defs>
</svg>
