<?xml version="1.0" standalone="no"?>
<!DOCTYPE svg PUBLIC "-//W3C//DTD SVG 1.1//EN" "http://www.w3.org/Graphics/SVG/1.1/DTD/svg11.dtd" >
<svg xmlns="http://www.w3.org/2000/svg" xmlns:xlink="http://www.w3.org/1999/xlink" version="1.1" viewBox="-10 0 1557 2048">
   <path fill="currentColor"
d="M0 990q0 -209 103.5 -386.5t280.5 -280.5t385 -103q156 0 298 61t245 164t164 245.5t61 299.5q0 156 -61 298.5t-164 245t-245 163t-298 60.5q-157 0 -299.5 -61t-245.5 -164t-163.5 -244.5t-60.5 -297.5zM169 990q0 243 177 422q177 177 423 177q162 0 300 -80.5
t219 -218.5t81 -300t-81 -300.5t-219 -219t-300 -80.5t-300 80.5t-219 219t-81 300.5zM503 1248l256 -600q2 -11 10 -11t10 11l255 600q4 11 -1.5 17t-16.5 0l-237 -89q-10 -4 -20 0l-239 89q-10 6 -16 0t-1 -17z" />
</svg>
