<?xml version="1.0" standalone="no"?>
<!DOCTYPE svg PUBLIC "-//W3C//DTD SVG 1.1//EN" "http://www.w3.org/Graphics/SVG/1.1/DTD/svg11.dtd" >
<svg xmlns="http://www.w3.org/2000/svg" xmlns:xlink="http://www.w3.org/1999/xlink" version="1.1" viewBox="-10 0 1020 1000">
   <path fill="currentColor"
d="M111 125h778q46 0 78.5 32.5t32.5 78.5v13q0 15 -17 28q-38 25 -38 70t38 71q17 12 17 27v125h-1000v-125q0 -15 17 -27q39 -26 39 -70.5t-39 -70.5q-17 -13 -17 -28v-13q0 -46 32.5 -78.5t78.5 -32.5zM1000 625v111q0 24 -16 39.5t-39 15.5h-84v-55q0 -11 -8 -19.5
t-19.5 -8.5t-19.5 8.5t-8 19.5v55h-167v-55q0 -11 -8 -19.5t-19.5 -8.5t-19.5 8.5t-8 19.5v55h-167v-55q0 -11 -8 -19.5t-19.5 -8.5t-20 8.5t-8.5 19.5v55h-166v-55q0 -11 -8.5 -19.5t-20 -8.5t-19.5 8.5t-8 19.5v55h-83q-23 0 -39.5 -15.5t-16.5 -39.5v-111h1000zM333 291
q0 -23 -16 -39t-39.5 -16t-39 16t-15.5 39v112q0 23 15.5 39t39 16t39.5 -16t16 -39v-112zM556 291q0 -23 -16.5 -39t-39.5 -16t-39 16t-16 39v112q0 23 16 39t39 16t39.5 -16t16.5 -39v-112zM778 291q0 -23 -16 -39t-39.5 -16t-39.5 16t-16 39v112q0 23 16 39t39.5 16
t39.5 -16t16 -39v-112z" />
</svg>
