<svg width="16" height="16" viewBox="0 0 16 16" xmlns="http://www.w3.org/2000/svg">
<path fill="currentColor" d="M0.156862 2.08001C0.156862 1.58934 0.324183 1.17334 0.658823 0.832007C0.993464 0.490674 1.39608 0.320007 1.86667 0.320007H14.1333C14.6039 0.320007 15.0065 0.490674 15.3412 0.832007C15.6758 1.17334 15.8431 1.58934 15.8431 2.08001V12.576C15.8431 13.0453 15.6758 13.456 15.3412 13.808C15.0065 14.16 14.6039 14.336 14.1333 14.336H1.86667C1.39608 14.336 0.993464 14.1653 0.658823 13.824C0.324183 13.4827 0.156862 13.0667 0.156862 12.576V2.08001ZM1.86667 1.82401C1.80392 1.82401 1.74902 1.85067 1.70196 1.90401C1.6549 1.95734 1.63137 2.01601 1.63137 2.08001V12.576C1.63137 12.64 1.6549 12.6987 1.70196 12.752C1.74902 12.8053 1.80392 12.832 1.86667 12.832H14.1333C14.1961 12.832 14.251 12.8053 14.298 12.752C14.3451 12.6987 14.3686 12.64 14.3686 12.576V2.08001C14.3686 2.01601 14.3451 1.95734 14.298 1.90401C14.251 1.85067 14.1961 1.82401 14.1333 1.82401H1.86667ZM7.26274 7.32801C7.26274 7.54134 7.18954 7.71201 7.04314 7.84001L4.84706 10.112C4.70065 10.2613 4.52288 10.336 4.31372 10.336C4.13595 10.336 3.9817 10.2827 3.85098 10.176C3.72026 10.0693 3.63399 9.94134 3.59216 9.79201C3.5817 9.72801 3.57647 9.66401 3.57647 9.60001C3.57647 9.38667 3.64967 9.20534 3.79608 9.05601L5.4902 7.32801L3.79608 5.60001C3.63921 5.45067 3.56078 5.26934 3.56078 5.05601C3.56078 4.88534 3.61307 4.73067 3.71765 4.59201C3.82222 4.45334 3.95817 4.36267 4.12549 4.32001H4.31372C4.52288 4.32001 4.70065 4.39467 4.84706 4.54401L7.04314 6.78401C7.18954 6.93334 7.26274 7.11467 7.26274 7.32801ZM8.73725 8.83201H11.6706C11.8797 8.83201 12.0549 8.90134 12.1961 9.04001C12.3373 9.17867 12.4078 9.35467 12.4078 9.56801C12.4078 9.78134 12.3373 9.96267 12.1961 10.112C12.0549 10.2613 11.8797 10.336 11.6706 10.336H8.73725C8.5281 10.336 8.35294 10.2613 8.21176 10.112C8.07059 9.96267 8 9.78134 8 9.56801C8 9.35467 8.07059 9.17867 8.21176 9.04001C8.35294 8.90134 8.5281 8.83201 8.73725 8.83201Z"/>
</svg>
